<svg height="33.057" viewBox="0 0 156.273 33.057" width="156.273" xmlns="http://www.w3.org/2000/svg"><g fill="#7dad14" transform="translate(-40.27 -40.299)"><path d="m71 68.6v-2.915a8.034 8.034 0 0 1 -3.293 2.372 12.331 12.331 0 0 1 -4.621.806 10.034 10.034 0 0 1 -4.5-.965 7.016 7.016 0 0 1 -4.044-6.462 6.3 6.3 0 0 1 2.422-5.258 11.058 11.058 0 0 1 6.859-1.946h7.127v-.632a3.977 3.977 0 0 0 -1.416-3.264 6.329 6.329 0 0 0 -4.113-1.163 14.342 14.342 0 0 0 -7.273 2.232l-2.148-4.019a27.576 27.576 0 0 1 5.233-2.263 19.589 19.589 0 0 1 5.512-.693q4.754 0 7.387 2.24a7.909 7.909 0 0 1 2.668 6.261l.053 15.669zm-2.107-5.4a4.1 4.1 0 0 0 2.057-2.929v-2.147h-6.174a6.831 6.831 0 0 0 -3.493.693 2.452 2.452 0 0 0 -1.121 2.259 2.881 2.881 0 0 0 1.167 2.418 5.106 5.106 0 0 0 3.18.894 7.886 7.886 0 0 0 4.384-1.188" transform="translate(15.524 4.493)"/><path d="m87.91 47.719q2.947 3.267 2.95 9.173c0 .775-.017 1.359-.044 1.743h-18.063a6.863 6.863 0 0 0 2.443 4 7.135 7.135 0 0 0 4.552 1.455 9.461 9.461 0 0 0 3.589-.693 8.706 8.706 0 0 0 2.994-1.994l3.2 3.27a12.466 12.466 0 0 1 -4.46 3.044 15.349 15.349 0 0 1 -5.828 1.071 13.814 13.814 0 0 1 -6.6-1.522 10.707 10.707 0 0 1 -4.414-4.276 13.626 13.626 0 0 1 .021-12.685 11.026 11.026 0 0 1 4.412-4.316 13.261 13.261 0 0 1 6.448-1.541q5.851 0 8.8 3.266m-2.491 7.024a5.753 5.753 0 0 0 -1.785-4.207 7.073 7.073 0 0 0 -8.849-.019 6.75 6.75 0 0 0 -2.172 4.226z" transform="translate(28.725 4.52)"/><path d="m95.629 69.914a11.8 11.8 0 0 1 -6.124 1.743 7.439 7.439 0 0 1 -5.168-1.806 6.852 6.852 0 0 1 -2.014-5.351v-11.813h-3.429l-.048-4.251h3.477v-4.52l5.9-2.057v6.577h7v4.251h-7v10.785a3.424 3.424 0 0 0 .637 2.347 2.488 2.488 0 0 0 1.923.693 8.644 8.644 0 0 0 3.474-.983z" transform="translate(41.971 1.697)"/><path d="m140.781 49.15h5.942v23.939h-5.942z"/><path d="m105.726 49.551a6.305 6.305 0 0 0 -4.827 1.973 7.143 7.143 0 0 0 -1.852 5.1 7.285 7.285 0 0 0 1.852 5.193 6.323 6.323 0 0 0 4.827 1.967q4.385 0 6.581-2.821l3.706 3a10.754 10.754 0 0 1 -4.345 3.583 14.756 14.756 0 0 1 -6.264 1.253 13.323 13.323 0 0 1 -6.423-1.522 10.782 10.782 0 0 1 -4.368-4.277 13.719 13.719 0 0 1 .023-12.726 10.966 10.966 0 0 1 4.391-4.3 13.357 13.357 0 0 1 6.471-1.52 14.836 14.836 0 0 1 5.965 1.142 10.738 10.738 0 0 1 4.272 3.241l-3.608 3.36a8.365 8.365 0 0 0 -6.4-2.643" transform="translate(57.436 4.519)"/><path d="m120.885 68.6v-2.915a8.013 8.013 0 0 1 -3.287 2.372 12.361 12.361 0 0 1 -4.625.806 10.01 10.01 0 0 1 -4.5-.965 7.126 7.126 0 0 1 -3-2.662 7.042 7.042 0 0 1 -1.052-3.8 6.3 6.3 0 0 1 2.426-5.258 11.047 11.047 0 0 1 6.857-1.946h7.131v-.632a3.986 3.986 0 0 0 -1.412-3.264 6.361 6.361 0 0 0 -4.118-1.163 14.331 14.331 0 0 0 -7.273 2.232l-2.151-4.024a27.588 27.588 0 0 1 5.235-2.263 19.589 19.589 0 0 1 5.512-.693q4.754 0 7.387 2.24a7.907 7.907 0 0 1 2.671 6.262l.05 15.664zm-2.1-5.4a4.093 4.093 0 0 0 2.057-2.929v-2.147h-6.17a6.842 6.842 0 0 0 -3.5.693 2.453 2.453 0 0 0 -1.117 2.259 2.88 2.88 0 0 0 1.165 2.418 5.11 5.11 0 0 0 3.18.894 7.9 7.9 0 0 0 4.385-1.188" transform="translate(69.801 4.493)"/><path d="m71.576 47.316-1.416-4.016 8.893-3 1.409 4.019z" transform="translate(32.521 .004)"/><path d="m40.27 73.072v-32.772h14.119c5.573 0 10.106 4.253 10.106 9.484a9.1 9.1 0 0 1 -1.973 5.627 9.361 9.361 0 0 1 4.662 7.989 9.9 9.9 0 0 1 -10.1 9.647zm5.477-13.8v8.428l11.327-.017a4.526 4.526 0 0 0 4.626-4.283 4.4 4.4 0 0 0 -4.621-4.124zm0-5.36h8.642a4.4 4.4 0 0 0 4.629-4.128 4.4 4.4 0 0 0 -4.629-4.126h-8.642z"/><path d="m94.48 43.35a3.058 3.058 0 1 1 -3.059-2.992 3.027 3.027 0 0 1 3.059 2.992" transform="translate(52.329 .064)"/></g></svg>